<mxfile host="app.diagrams.net" modified="2024-04-15T14:02:05.477Z" agent="Mozilla/5.0 (Windows NT 10.0; Win64; x64) AppleWebKit/537.36 (KHTML, like Gecko) Chrome/123.0.0.0 Safari/537.36" etag="R7T_vZJWypbDLH4GsZF-" version="24.2.5" type="github">
  <diagram id="C5RBs43oDa-KdzZeNtuy" name="Page-1">
    <mxGraphModel dx="2390" dy="1257" grid="1" gridSize="10" guides="1" tooltips="1" connect="1" arrows="1" fold="1" page="1" pageScale="1" pageWidth="827" pageHeight="1169" math="0" shadow="0">
      <root>
        <mxCell id="WIyWlLk6GJQsqaUBKTNV-0" />
        <mxCell id="WIyWlLk6GJQsqaUBKTNV-1" parent="WIyWlLk6GJQsqaUBKTNV-0" />
        <mxCell id="AJ_VUI1XPqa23FB4NZY7-39" value="" style="edgeStyle=orthogonalEdgeStyle;rounded=0;orthogonalLoop=1;jettySize=auto;html=1;" edge="1" parent="WIyWlLk6GJQsqaUBKTNV-1" source="AJ_VUI1XPqa23FB4NZY7-36" target="AJ_VUI1XPqa23FB4NZY7-38">
          <mxGeometry relative="1" as="geometry" />
        </mxCell>
        <mxCell id="AJ_VUI1XPqa23FB4NZY7-36" value="" style="rounded=1;whiteSpace=wrap;html=1;dashed=1;" vertex="1" parent="WIyWlLk6GJQsqaUBKTNV-1">
          <mxGeometry y="120" width="1610" height="920" as="geometry" />
        </mxCell>
        <mxCell id="AJ_VUI1XPqa23FB4NZY7-6" style="edgeStyle=orthogonalEdgeStyle;rounded=0;orthogonalLoop=1;jettySize=auto;html=1;exitX=1;exitY=0.5;exitDx=0;exitDy=0;" edge="1" parent="WIyWlLk6GJQsqaUBKTNV-1" source="WIyWlLk6GJQsqaUBKTNV-3" target="WIyWlLk6GJQsqaUBKTNV-10">
          <mxGeometry relative="1" as="geometry" />
        </mxCell>
        <mxCell id="AJ_VUI1XPqa23FB4NZY7-9" style="edgeStyle=orthogonalEdgeStyle;rounded=0;orthogonalLoop=1;jettySize=auto;html=1;exitX=1;exitY=0.5;exitDx=0;exitDy=0;entryX=0;entryY=0.5;entryDx=0;entryDy=0;" edge="1" parent="WIyWlLk6GJQsqaUBKTNV-1" source="WIyWlLk6GJQsqaUBKTNV-3" target="WIyWlLk6GJQsqaUBKTNV-6">
          <mxGeometry relative="1" as="geometry" />
        </mxCell>
        <mxCell id="AJ_VUI1XPqa23FB4NZY7-10" style="edgeStyle=orthogonalEdgeStyle;rounded=0;orthogonalLoop=1;jettySize=auto;html=1;exitX=1;exitY=0.5;exitDx=0;exitDy=0;entryX=0;entryY=0.5;entryDx=0;entryDy=0;" edge="1" parent="WIyWlLk6GJQsqaUBKTNV-1" source="WIyWlLk6GJQsqaUBKTNV-3" target="AJ_VUI1XPqa23FB4NZY7-1">
          <mxGeometry relative="1" as="geometry" />
        </mxCell>
        <mxCell id="WIyWlLk6GJQsqaUBKTNV-3" value="Moteurs de recherche primaires" style="rounded=1;whiteSpace=wrap;html=1;fontSize=12;glass=0;strokeWidth=1;shadow=0;" parent="WIyWlLk6GJQsqaUBKTNV-1" vertex="1">
          <mxGeometry x="10" y="270" width="120" height="40" as="geometry" />
        </mxCell>
        <mxCell id="AJ_VUI1XPqa23FB4NZY7-14" style="edgeStyle=orthogonalEdgeStyle;rounded=0;orthogonalLoop=1;jettySize=auto;html=1;exitX=0.5;exitY=1;exitDx=0;exitDy=0;" edge="1" parent="WIyWlLk6GJQsqaUBKTNV-1" source="WIyWlLk6GJQsqaUBKTNV-6" target="WIyWlLk6GJQsqaUBKTNV-10">
          <mxGeometry relative="1" as="geometry" />
        </mxCell>
        <mxCell id="WIyWlLk6GJQsqaUBKTNV-6" value="Dybola" style="rhombus;whiteSpace=wrap;html=1;shadow=0;fontFamily=Helvetica;fontSize=12;align=center;strokeWidth=1;spacing=6;spacingTop=-4;" parent="WIyWlLk6GJQsqaUBKTNV-1" vertex="1">
          <mxGeometry x="170" y="170" width="100" height="80" as="geometry" />
        </mxCell>
        <mxCell id="WIyWlLk6GJQsqaUBKTNV-7" value="Archéologie DAI -Après 1956" style="rounded=1;whiteSpace=wrap;html=1;fontSize=12;glass=0;strokeWidth=1;shadow=0;" parent="WIyWlLk6GJQsqaUBKTNV-1" vertex="1">
          <mxGeometry x="320" y="190" width="120" height="40" as="geometry" />
        </mxCell>
        <mxCell id="AJ_VUI1XPqa23FB4NZY7-2" value="" style="edgeStyle=orthogonalEdgeStyle;rounded=0;orthogonalLoop=1;jettySize=auto;html=1;" edge="1" parent="WIyWlLk6GJQsqaUBKTNV-1" source="WIyWlLk6GJQsqaUBKTNV-10" target="AJ_VUI1XPqa23FB4NZY7-1">
          <mxGeometry relative="1" as="geometry" />
        </mxCell>
        <mxCell id="AJ_VUI1XPqa23FB4NZY7-12" style="edgeStyle=orthogonalEdgeStyle;rounded=0;orthogonalLoop=1;jettySize=auto;html=1;exitX=0.5;exitY=0;exitDx=0;exitDy=0;entryX=0.5;entryY=1;entryDx=0;entryDy=0;" edge="1" parent="WIyWlLk6GJQsqaUBKTNV-1" source="WIyWlLk6GJQsqaUBKTNV-10" target="WIyWlLk6GJQsqaUBKTNV-6">
          <mxGeometry relative="1" as="geometry" />
        </mxCell>
        <mxCell id="WIyWlLk6GJQsqaUBKTNV-10" value="Zenon" style="rhombus;whiteSpace=wrap;html=1;shadow=0;fontFamily=Helvetica;fontSize=12;align=center;strokeWidth=1;spacing=6;spacingTop=-4;" parent="WIyWlLk6GJQsqaUBKTNV-1" vertex="1">
          <mxGeometry x="170" y="290" width="100" height="80" as="geometry" />
        </mxCell>
        <mxCell id="WIyWlLk6GJQsqaUBKTNV-12" value="Archéologie DAI -Avant et après 1956" style="rounded=1;whiteSpace=wrap;html=1;fontSize=12;glass=0;strokeWidth=1;shadow=0;" parent="WIyWlLk6GJQsqaUBKTNV-1" vertex="1">
          <mxGeometry x="320" y="310" width="120" height="40" as="geometry" />
        </mxCell>
        <mxCell id="AJ_VUI1XPqa23FB4NZY7-0" value="La muraille d&#39;Athènes (Vème-Ier siècle av. J.-Ch.) : sources et documents" style="text;strokeColor=none;fillColor=none;html=1;fontSize=24;fontStyle=1;verticalAlign=middle;align=center;" vertex="1" parent="WIyWlLk6GJQsqaUBKTNV-1">
          <mxGeometry x="40" y="30" width="1060" height="40" as="geometry" />
        </mxCell>
        <mxCell id="AJ_VUI1XPqa23FB4NZY7-4" style="edgeStyle=orthogonalEdgeStyle;rounded=0;orthogonalLoop=1;jettySize=auto;html=1;entryX=0.5;entryY=1;entryDx=0;entryDy=0;" edge="1" parent="WIyWlLk6GJQsqaUBKTNV-1" source="AJ_VUI1XPqa23FB4NZY7-1" target="WIyWlLk6GJQsqaUBKTNV-10">
          <mxGeometry relative="1" as="geometry" />
        </mxCell>
        <mxCell id="AJ_VUI1XPqa23FB4NZY7-1" value="Année Philologique" style="rhombus;whiteSpace=wrap;html=1;shadow=0;fontFamily=Helvetica;fontSize=12;align=center;strokeWidth=1;spacing=6;spacingTop=-4;" vertex="1" parent="WIyWlLk6GJQsqaUBKTNV-1">
          <mxGeometry x="170" y="400" width="100" height="80" as="geometry" />
        </mxCell>
        <mxCell id="AJ_VUI1XPqa23FB4NZY7-17" value="" style="endArrow=none;dashed=1;html=1;rounded=0;exitX=1;exitY=0.5;exitDx=0;exitDy=0;entryX=0;entryY=0.5;entryDx=0;entryDy=0;" edge="1" parent="WIyWlLk6GJQsqaUBKTNV-1" source="WIyWlLk6GJQsqaUBKTNV-6" target="WIyWlLk6GJQsqaUBKTNV-7">
          <mxGeometry width="50" height="50" relative="1" as="geometry">
            <mxPoint x="300" y="360" as="sourcePoint" />
            <mxPoint x="350" y="310" as="targetPoint" />
          </mxGeometry>
        </mxCell>
        <mxCell id="AJ_VUI1XPqa23FB4NZY7-18" value="" style="endArrow=none;dashed=1;html=1;rounded=0;exitX=1;exitY=0.5;exitDx=0;exitDy=0;entryX=0;entryY=0.5;entryDx=0;entryDy=0;" edge="1" parent="WIyWlLk6GJQsqaUBKTNV-1">
          <mxGeometry width="50" height="50" relative="1" as="geometry">
            <mxPoint x="270" y="329.71" as="sourcePoint" />
            <mxPoint x="320" y="329.71" as="targetPoint" />
          </mxGeometry>
        </mxCell>
        <mxCell id="AJ_VUI1XPqa23FB4NZY7-19" value="Antiquité classique - Depuis fin XIXème" style="rounded=1;whiteSpace=wrap;html=1;fontSize=12;glass=0;strokeWidth=1;shadow=0;" vertex="1" parent="WIyWlLk6GJQsqaUBKTNV-1">
          <mxGeometry x="320" y="420" width="120" height="40" as="geometry" />
        </mxCell>
        <mxCell id="AJ_VUI1XPqa23FB4NZY7-20" style="edgeStyle=orthogonalEdgeStyle;rounded=0;orthogonalLoop=1;jettySize=auto;html=1;exitX=1;exitY=0.5;exitDx=0;exitDy=0;" edge="1" parent="WIyWlLk6GJQsqaUBKTNV-1" source="AJ_VUI1XPqa23FB4NZY7-23" target="AJ_VUI1XPqa23FB4NZY7-29">
          <mxGeometry relative="1" as="geometry" />
        </mxCell>
        <mxCell id="AJ_VUI1XPqa23FB4NZY7-21" style="edgeStyle=orthogonalEdgeStyle;rounded=0;orthogonalLoop=1;jettySize=auto;html=1;exitX=1;exitY=0.5;exitDx=0;exitDy=0;entryX=0;entryY=0.5;entryDx=0;entryDy=0;" edge="1" parent="WIyWlLk6GJQsqaUBKTNV-1" source="AJ_VUI1XPqa23FB4NZY7-23" target="AJ_VUI1XPqa23FB4NZY7-25">
          <mxGeometry relative="1" as="geometry" />
        </mxCell>
        <mxCell id="AJ_VUI1XPqa23FB4NZY7-22" style="edgeStyle=orthogonalEdgeStyle;rounded=0;orthogonalLoop=1;jettySize=auto;html=1;exitX=1;exitY=0.5;exitDx=0;exitDy=0;entryX=0;entryY=0.5;entryDx=0;entryDy=0;" edge="1" parent="WIyWlLk6GJQsqaUBKTNV-1" source="AJ_VUI1XPqa23FB4NZY7-23" target="AJ_VUI1XPqa23FB4NZY7-32">
          <mxGeometry relative="1" as="geometry" />
        </mxCell>
        <mxCell id="AJ_VUI1XPqa23FB4NZY7-23" value="Moteurs de recherche secondaires" style="rounded=1;whiteSpace=wrap;html=1;fontSize=12;glass=0;strokeWidth=1;shadow=0;" vertex="1" parent="WIyWlLk6GJQsqaUBKTNV-1">
          <mxGeometry x="320" y="719" width="120" height="40" as="geometry" />
        </mxCell>
        <mxCell id="AJ_VUI1XPqa23FB4NZY7-24" style="edgeStyle=orthogonalEdgeStyle;rounded=0;orthogonalLoop=1;jettySize=auto;html=1;exitX=0.5;exitY=1;exitDx=0;exitDy=0;" edge="1" parent="WIyWlLk6GJQsqaUBKTNV-1" source="AJ_VUI1XPqa23FB4NZY7-25" target="AJ_VUI1XPqa23FB4NZY7-29">
          <mxGeometry relative="1" as="geometry" />
        </mxCell>
        <mxCell id="AJ_VUI1XPqa23FB4NZY7-25" value="Sudoc" style="rhombus;whiteSpace=wrap;html=1;shadow=0;fontFamily=Helvetica;fontSize=12;align=center;strokeWidth=1;spacing=6;spacingTop=-4;" vertex="1" parent="WIyWlLk6GJQsqaUBKTNV-1">
          <mxGeometry x="480" y="579" width="100" height="80" as="geometry" />
        </mxCell>
        <mxCell id="AJ_VUI1XPqa23FB4NZY7-26" value="Absence d&#39;articles" style="rounded=1;whiteSpace=wrap;html=1;fontSize=12;glass=0;strokeWidth=1;shadow=0;" vertex="1" parent="WIyWlLk6GJQsqaUBKTNV-1">
          <mxGeometry x="630" y="599" width="120" height="40" as="geometry" />
        </mxCell>
        <mxCell id="AJ_VUI1XPqa23FB4NZY7-27" value="" style="edgeStyle=orthogonalEdgeStyle;rounded=0;orthogonalLoop=1;jettySize=auto;html=1;" edge="1" parent="WIyWlLk6GJQsqaUBKTNV-1" source="AJ_VUI1XPqa23FB4NZY7-29" target="AJ_VUI1XPqa23FB4NZY7-32">
          <mxGeometry relative="1" as="geometry" />
        </mxCell>
        <mxCell id="AJ_VUI1XPqa23FB4NZY7-28" style="edgeStyle=orthogonalEdgeStyle;rounded=0;orthogonalLoop=1;jettySize=auto;html=1;exitX=0.5;exitY=0;exitDx=0;exitDy=0;entryX=0.5;entryY=1;entryDx=0;entryDy=0;" edge="1" parent="WIyWlLk6GJQsqaUBKTNV-1" source="AJ_VUI1XPqa23FB4NZY7-29" target="AJ_VUI1XPqa23FB4NZY7-25">
          <mxGeometry relative="1" as="geometry" />
        </mxCell>
        <mxCell id="AJ_VUI1XPqa23FB4NZY7-29" value="Isidore" style="rhombus;whiteSpace=wrap;html=1;shadow=0;fontFamily=Helvetica;fontSize=12;align=center;strokeWidth=1;spacing=6;spacingTop=-4;" vertex="1" parent="WIyWlLk6GJQsqaUBKTNV-1">
          <mxGeometry x="480" y="699" width="100" height="80" as="geometry" />
        </mxCell>
        <mxCell id="AJ_VUI1XPqa23FB4NZY7-30" value="Ressources numériques moissonnables" style="rounded=1;whiteSpace=wrap;html=1;fontSize=10;glass=0;strokeWidth=1;shadow=0;" vertex="1" parent="WIyWlLk6GJQsqaUBKTNV-1">
          <mxGeometry x="630" y="719" width="120" height="40" as="geometry" />
        </mxCell>
        <mxCell id="AJ_VUI1XPqa23FB4NZY7-31" style="edgeStyle=orthogonalEdgeStyle;rounded=0;orthogonalLoop=1;jettySize=auto;html=1;entryX=0.5;entryY=1;entryDx=0;entryDy=0;" edge="1" parent="WIyWlLk6GJQsqaUBKTNV-1" source="AJ_VUI1XPqa23FB4NZY7-32" target="AJ_VUI1XPqa23FB4NZY7-29">
          <mxGeometry relative="1" as="geometry" />
        </mxCell>
        <mxCell id="AJ_VUI1XPqa23FB4NZY7-32" value="Frantiq" style="rhombus;whiteSpace=wrap;html=1;shadow=0;fontFamily=Helvetica;fontSize=12;align=center;strokeWidth=1;spacing=6;spacingTop=-4;" vertex="1" parent="WIyWlLk6GJQsqaUBKTNV-1">
          <mxGeometry x="480" y="809" width="100" height="80" as="geometry" />
        </mxCell>
        <mxCell id="AJ_VUI1XPqa23FB4NZY7-33" value="" style="endArrow=none;dashed=1;html=1;rounded=0;exitX=1;exitY=0.5;exitDx=0;exitDy=0;entryX=0;entryY=0.5;entryDx=0;entryDy=0;" edge="1" parent="WIyWlLk6GJQsqaUBKTNV-1" source="AJ_VUI1XPqa23FB4NZY7-25" target="AJ_VUI1XPqa23FB4NZY7-26">
          <mxGeometry width="50" height="50" relative="1" as="geometry">
            <mxPoint x="610" y="769" as="sourcePoint" />
            <mxPoint x="660" y="719" as="targetPoint" />
          </mxGeometry>
        </mxCell>
        <mxCell id="AJ_VUI1XPqa23FB4NZY7-34" value="" style="endArrow=none;dashed=1;html=1;rounded=0;exitX=1;exitY=0.5;exitDx=0;exitDy=0;entryX=0;entryY=0.5;entryDx=0;entryDy=0;" edge="1" parent="WIyWlLk6GJQsqaUBKTNV-1">
          <mxGeometry width="50" height="50" relative="1" as="geometry">
            <mxPoint x="580" y="738.71" as="sourcePoint" />
            <mxPoint x="630" y="738.71" as="targetPoint" />
          </mxGeometry>
        </mxCell>
        <mxCell id="AJ_VUI1XPqa23FB4NZY7-35" value="&lt;span style=&quot;font-size: 10px;&quot;&gt;Catalogue 42 bibliothèques Archéo France&lt;/span&gt;" style="rounded=1;whiteSpace=wrap;html=1;fontSize=12;glass=0;strokeWidth=1;shadow=0;" vertex="1" parent="WIyWlLk6GJQsqaUBKTNV-1">
          <mxGeometry x="630" y="829" width="120" height="40" as="geometry" />
        </mxCell>
        <mxCell id="AJ_VUI1XPqa23FB4NZY7-37" style="edgeStyle=orthogonalEdgeStyle;rounded=0;orthogonalLoop=1;jettySize=auto;html=1;exitX=0.5;exitY=1;exitDx=0;exitDy=0;" edge="1" parent="WIyWlLk6GJQsqaUBKTNV-1" source="AJ_VUI1XPqa23FB4NZY7-36" target="AJ_VUI1XPqa23FB4NZY7-36">
          <mxGeometry relative="1" as="geometry" />
        </mxCell>
        <mxCell id="AJ_VUI1XPqa23FB4NZY7-38" value="Outil de référencement bibliographique : ZOTERO" style="rounded=1;whiteSpace=wrap;html=1;" vertex="1" parent="WIyWlLk6GJQsqaUBKTNV-1">
          <mxGeometry x="510" y="1090" width="480" height="40" as="geometry" />
        </mxCell>
        <mxCell id="AJ_VUI1XPqa23FB4NZY7-40" style="edgeStyle=orthogonalEdgeStyle;rounded=0;orthogonalLoop=1;jettySize=auto;html=1;exitX=1;exitY=0.5;exitDx=0;exitDy=0;" edge="1" parent="WIyWlLk6GJQsqaUBKTNV-1" source="AJ_VUI1XPqa23FB4NZY7-43" target="AJ_VUI1XPqa23FB4NZY7-49">
          <mxGeometry relative="1" as="geometry" />
        </mxCell>
        <mxCell id="AJ_VUI1XPqa23FB4NZY7-41" style="edgeStyle=orthogonalEdgeStyle;rounded=0;orthogonalLoop=1;jettySize=auto;html=1;exitX=1;exitY=0.5;exitDx=0;exitDy=0;entryX=0;entryY=0.5;entryDx=0;entryDy=0;" edge="1" parent="WIyWlLk6GJQsqaUBKTNV-1" source="AJ_VUI1XPqa23FB4NZY7-43" target="AJ_VUI1XPqa23FB4NZY7-45">
          <mxGeometry relative="1" as="geometry" />
        </mxCell>
        <mxCell id="AJ_VUI1XPqa23FB4NZY7-42" style="edgeStyle=orthogonalEdgeStyle;rounded=0;orthogonalLoop=1;jettySize=auto;html=1;exitX=1;exitY=0.5;exitDx=0;exitDy=0;entryX=0;entryY=0.5;entryDx=0;entryDy=0;" edge="1" parent="WIyWlLk6GJQsqaUBKTNV-1" source="AJ_VUI1XPqa23FB4NZY7-43" target="AJ_VUI1XPqa23FB4NZY7-52">
          <mxGeometry relative="1" as="geometry" />
        </mxCell>
        <mxCell id="AJ_VUI1XPqa23FB4NZY7-43" value="Encyclopédies &amp;amp; Dictionnaires" style="rounded=1;whiteSpace=wrap;html=1;fontSize=12;glass=0;strokeWidth=1;shadow=0;" vertex="1" parent="WIyWlLk6GJQsqaUBKTNV-1">
          <mxGeometry x="1830" y="532" width="120" height="40" as="geometry" />
        </mxCell>
        <mxCell id="AJ_VUI1XPqa23FB4NZY7-44" style="edgeStyle=orthogonalEdgeStyle;rounded=0;orthogonalLoop=1;jettySize=auto;html=1;exitX=0.5;exitY=1;exitDx=0;exitDy=0;" edge="1" parent="WIyWlLk6GJQsqaUBKTNV-1" source="AJ_VUI1XPqa23FB4NZY7-45" target="AJ_VUI1XPqa23FB4NZY7-49">
          <mxGeometry relative="1" as="geometry" />
        </mxCell>
        <mxCell id="AJ_VUI1XPqa23FB4NZY7-45" value="RE" style="rhombus;whiteSpace=wrap;html=1;shadow=0;fontFamily=Helvetica;fontSize=12;align=center;strokeWidth=1;spacing=6;spacingTop=-4;" vertex="1" parent="WIyWlLk6GJQsqaUBKTNV-1">
          <mxGeometry x="1990" y="432" width="100" height="80" as="geometry" />
        </mxCell>
        <mxCell id="AJ_VUI1XPqa23FB4NZY7-46" value="Archéologie DAI -Après 1956" style="rounded=1;whiteSpace=wrap;html=1;fontSize=12;glass=0;strokeWidth=1;shadow=0;" vertex="1" parent="WIyWlLk6GJQsqaUBKTNV-1">
          <mxGeometry x="2140" y="452" width="120" height="40" as="geometry" />
        </mxCell>
        <mxCell id="AJ_VUI1XPqa23FB4NZY7-47" value="" style="edgeStyle=orthogonalEdgeStyle;rounded=0;orthogonalLoop=1;jettySize=auto;html=1;" edge="1" parent="WIyWlLk6GJQsqaUBKTNV-1" source="AJ_VUI1XPqa23FB4NZY7-49" target="AJ_VUI1XPqa23FB4NZY7-52">
          <mxGeometry relative="1" as="geometry" />
        </mxCell>
        <mxCell id="AJ_VUI1XPqa23FB4NZY7-48" style="edgeStyle=orthogonalEdgeStyle;rounded=0;orthogonalLoop=1;jettySize=auto;html=1;exitX=0.5;exitY=0;exitDx=0;exitDy=0;entryX=0.5;entryY=1;entryDx=0;entryDy=0;" edge="1" parent="WIyWlLk6GJQsqaUBKTNV-1" source="AJ_VUI1XPqa23FB4NZY7-49" target="AJ_VUI1XPqa23FB4NZY7-45">
          <mxGeometry relative="1" as="geometry" />
        </mxCell>
        <mxCell id="AJ_VUI1XPqa23FB4NZY7-49" value="Der Neue Pauly" style="rhombus;whiteSpace=wrap;html=1;shadow=0;fontFamily=Helvetica;fontSize=12;align=center;strokeWidth=1;spacing=6;spacingTop=-4;" vertex="1" parent="WIyWlLk6GJQsqaUBKTNV-1">
          <mxGeometry x="1990" y="552" width="100" height="80" as="geometry" />
        </mxCell>
        <mxCell id="AJ_VUI1XPqa23FB4NZY7-50" value="Archéologie DAI -Avant et après 1956" style="rounded=1;whiteSpace=wrap;html=1;fontSize=12;glass=0;strokeWidth=1;shadow=0;" vertex="1" parent="WIyWlLk6GJQsqaUBKTNV-1">
          <mxGeometry x="2140" y="572" width="120" height="40" as="geometry" />
        </mxCell>
        <mxCell id="AJ_VUI1XPqa23FB4NZY7-51" style="edgeStyle=orthogonalEdgeStyle;rounded=0;orthogonalLoop=1;jettySize=auto;html=1;entryX=0.5;entryY=1;entryDx=0;entryDy=0;" edge="1" parent="WIyWlLk6GJQsqaUBKTNV-1" source="AJ_VUI1XPqa23FB4NZY7-52" target="AJ_VUI1XPqa23FB4NZY7-49">
          <mxGeometry relative="1" as="geometry" />
        </mxCell>
        <mxCell id="AJ_VUI1XPqa23FB4NZY7-154" value="" style="edgeStyle=orthogonalEdgeStyle;rounded=0;orthogonalLoop=1;jettySize=auto;html=1;" edge="1" parent="WIyWlLk6GJQsqaUBKTNV-1" source="AJ_VUI1XPqa23FB4NZY7-52" target="AJ_VUI1XPqa23FB4NZY7-153">
          <mxGeometry relative="1" as="geometry" />
        </mxCell>
        <mxCell id="AJ_VUI1XPqa23FB4NZY7-52" value="Brill&#39;s New Pauly" style="rhombus;whiteSpace=wrap;html=1;shadow=0;fontFamily=Helvetica;fontSize=12;align=center;strokeWidth=1;spacing=6;spacingTop=-4;" vertex="1" parent="WIyWlLk6GJQsqaUBKTNV-1">
          <mxGeometry x="1990" y="662" width="100" height="80" as="geometry" />
        </mxCell>
        <mxCell id="AJ_VUI1XPqa23FB4NZY7-53" value="" style="endArrow=none;dashed=1;html=1;rounded=0;exitX=1;exitY=0.5;exitDx=0;exitDy=0;entryX=0;entryY=0.5;entryDx=0;entryDy=0;" edge="1" parent="WIyWlLk6GJQsqaUBKTNV-1" source="AJ_VUI1XPqa23FB4NZY7-45" target="AJ_VUI1XPqa23FB4NZY7-46">
          <mxGeometry width="50" height="50" relative="1" as="geometry">
            <mxPoint x="2120" y="622" as="sourcePoint" />
            <mxPoint x="2170" y="572" as="targetPoint" />
          </mxGeometry>
        </mxCell>
        <mxCell id="AJ_VUI1XPqa23FB4NZY7-54" value="" style="endArrow=none;dashed=1;html=1;rounded=0;exitX=1;exitY=0.5;exitDx=0;exitDy=0;entryX=0;entryY=0.5;entryDx=0;entryDy=0;" edge="1" parent="WIyWlLk6GJQsqaUBKTNV-1">
          <mxGeometry width="50" height="50" relative="1" as="geometry">
            <mxPoint x="2090" y="591.71" as="sourcePoint" />
            <mxPoint x="2140" y="591.71" as="targetPoint" />
          </mxGeometry>
        </mxCell>
        <mxCell id="AJ_VUI1XPqa23FB4NZY7-55" value="Antiquité classique - Depuis fin XIXème" style="rounded=1;whiteSpace=wrap;html=1;fontSize=12;glass=0;strokeWidth=1;shadow=0;" vertex="1" parent="WIyWlLk6GJQsqaUBKTNV-1">
          <mxGeometry x="2140" y="682" width="120" height="40" as="geometry" />
        </mxCell>
        <mxCell id="AJ_VUI1XPqa23FB4NZY7-57" value="" style="shape=flexArrow;endArrow=classic;html=1;rounded=0;endWidth=18.846153846153847;endSize=4.9653846153846155;dashed=1;dashPattern=12 12;strokeColor=none;fillColor=#FF2450;" edge="1" parent="WIyWlLk6GJQsqaUBKTNV-1">
          <mxGeometry width="50" height="50" relative="1" as="geometry">
            <mxPoint x="1700" y="550" as="sourcePoint" />
            <mxPoint x="1800" y="550" as="targetPoint" />
            <Array as="points">
              <mxPoint x="1720" y="550" />
            </Array>
          </mxGeometry>
        </mxCell>
        <mxCell id="AJ_VUI1XPqa23FB4NZY7-58" style="edgeStyle=orthogonalEdgeStyle;rounded=0;orthogonalLoop=1;jettySize=auto;html=1;exitX=1;exitY=0.5;exitDx=0;exitDy=0;" edge="1" parent="WIyWlLk6GJQsqaUBKTNV-1" source="AJ_VUI1XPqa23FB4NZY7-61" target="AJ_VUI1XPqa23FB4NZY7-67">
          <mxGeometry relative="1" as="geometry" />
        </mxCell>
        <mxCell id="AJ_VUI1XPqa23FB4NZY7-59" style="edgeStyle=orthogonalEdgeStyle;rounded=0;orthogonalLoop=1;jettySize=auto;html=1;exitX=1;exitY=0.5;exitDx=0;exitDy=0;entryX=0;entryY=0.5;entryDx=0;entryDy=0;" edge="1" parent="WIyWlLk6GJQsqaUBKTNV-1" source="AJ_VUI1XPqa23FB4NZY7-61" target="AJ_VUI1XPqa23FB4NZY7-63">
          <mxGeometry relative="1" as="geometry" />
        </mxCell>
        <mxCell id="AJ_VUI1XPqa23FB4NZY7-60" style="edgeStyle=orthogonalEdgeStyle;rounded=0;orthogonalLoop=1;jettySize=auto;html=1;exitX=1;exitY=0.5;exitDx=0;exitDy=0;entryX=0;entryY=0.5;entryDx=0;entryDy=0;" edge="1" parent="WIyWlLk6GJQsqaUBKTNV-1" source="AJ_VUI1XPqa23FB4NZY7-61" target="AJ_VUI1XPqa23FB4NZY7-70">
          <mxGeometry relative="1" as="geometry" />
        </mxCell>
        <mxCell id="AJ_VUI1XPqa23FB4NZY7-61" value="Sources écrites" style="rounded=1;whiteSpace=wrap;html=1;fontSize=12;glass=0;strokeWidth=1;shadow=0;" vertex="1" parent="WIyWlLk6GJQsqaUBKTNV-1">
          <mxGeometry x="2370" y="280" width="120" height="40" as="geometry" />
        </mxCell>
        <mxCell id="AJ_VUI1XPqa23FB4NZY7-62" style="edgeStyle=orthogonalEdgeStyle;rounded=0;orthogonalLoop=1;jettySize=auto;html=1;exitX=0.5;exitY=1;exitDx=0;exitDy=0;" edge="1" parent="WIyWlLk6GJQsqaUBKTNV-1" source="AJ_VUI1XPqa23FB4NZY7-63" target="AJ_VUI1XPqa23FB4NZY7-67">
          <mxGeometry relative="1" as="geometry" />
        </mxCell>
        <mxCell id="AJ_VUI1XPqa23FB4NZY7-63" value="Editions&amp;nbsp;&lt;div&gt;criques&lt;/div&gt;" style="rhombus;whiteSpace=wrap;html=1;shadow=0;fontFamily=Helvetica;fontSize=12;align=center;strokeWidth=1;spacing=6;spacingTop=-4;" vertex="1" parent="WIyWlLk6GJQsqaUBKTNV-1">
          <mxGeometry x="2530" y="180" width="100" height="80" as="geometry" />
        </mxCell>
        <mxCell id="AJ_VUI1XPqa23FB4NZY7-64" value="Archéologie DAI -Après 1956" style="rounded=1;whiteSpace=wrap;html=1;fontSize=12;glass=0;strokeWidth=1;shadow=0;" vertex="1" parent="WIyWlLk6GJQsqaUBKTNV-1">
          <mxGeometry x="2680" y="200" width="120" height="40" as="geometry" />
        </mxCell>
        <mxCell id="AJ_VUI1XPqa23FB4NZY7-65" value="" style="edgeStyle=orthogonalEdgeStyle;rounded=0;orthogonalLoop=1;jettySize=auto;html=1;" edge="1" parent="WIyWlLk6GJQsqaUBKTNV-1" source="AJ_VUI1XPqa23FB4NZY7-67" target="AJ_VUI1XPqa23FB4NZY7-70">
          <mxGeometry relative="1" as="geometry" />
        </mxCell>
        <mxCell id="AJ_VUI1XPqa23FB4NZY7-66" style="edgeStyle=orthogonalEdgeStyle;rounded=0;orthogonalLoop=1;jettySize=auto;html=1;exitX=0.5;exitY=0;exitDx=0;exitDy=0;entryX=0.5;entryY=1;entryDx=0;entryDy=0;" edge="1" parent="WIyWlLk6GJQsqaUBKTNV-1" source="AJ_VUI1XPqa23FB4NZY7-67" target="AJ_VUI1XPqa23FB4NZY7-63">
          <mxGeometry relative="1" as="geometry" />
        </mxCell>
        <mxCell id="AJ_VUI1XPqa23FB4NZY7-67" value="Traductions" style="rhombus;whiteSpace=wrap;html=1;shadow=0;fontFamily=Helvetica;fontSize=12;align=center;strokeWidth=1;spacing=6;spacingTop=-4;" vertex="1" parent="WIyWlLk6GJQsqaUBKTNV-1">
          <mxGeometry x="2530" y="300" width="100" height="80" as="geometry" />
        </mxCell>
        <mxCell id="AJ_VUI1XPqa23FB4NZY7-68" value="Archéologie DAI -Avant et après 1956" style="rounded=1;whiteSpace=wrap;html=1;fontSize=12;glass=0;strokeWidth=1;shadow=0;" vertex="1" parent="WIyWlLk6GJQsqaUBKTNV-1">
          <mxGeometry x="2680" y="320" width="120" height="40" as="geometry" />
        </mxCell>
        <mxCell id="AJ_VUI1XPqa23FB4NZY7-69" style="edgeStyle=orthogonalEdgeStyle;rounded=0;orthogonalLoop=1;jettySize=auto;html=1;entryX=0.5;entryY=1;entryDx=0;entryDy=0;" edge="1" parent="WIyWlLk6GJQsqaUBKTNV-1" source="AJ_VUI1XPqa23FB4NZY7-70" target="AJ_VUI1XPqa23FB4NZY7-67">
          <mxGeometry relative="1" as="geometry" />
        </mxCell>
        <mxCell id="AJ_VUI1XPqa23FB4NZY7-70" value="Outils de recherche en ligne" style="rhombus;whiteSpace=wrap;html=1;shadow=0;fontFamily=Helvetica;fontSize=12;align=center;strokeWidth=1;spacing=6;spacingTop=-4;" vertex="1" parent="WIyWlLk6GJQsqaUBKTNV-1">
          <mxGeometry x="2530" y="410" width="100" height="80" as="geometry" />
        </mxCell>
        <mxCell id="AJ_VUI1XPqa23FB4NZY7-71" value="" style="endArrow=none;dashed=1;html=1;rounded=0;exitX=1;exitY=0.5;exitDx=0;exitDy=0;entryX=0;entryY=0.5;entryDx=0;entryDy=0;" edge="1" parent="WIyWlLk6GJQsqaUBKTNV-1" source="AJ_VUI1XPqa23FB4NZY7-63" target="AJ_VUI1XPqa23FB4NZY7-64">
          <mxGeometry width="50" height="50" relative="1" as="geometry">
            <mxPoint x="2660" y="370" as="sourcePoint" />
            <mxPoint x="2710" y="320" as="targetPoint" />
          </mxGeometry>
        </mxCell>
        <mxCell id="AJ_VUI1XPqa23FB4NZY7-72" value="" style="endArrow=none;dashed=1;html=1;rounded=0;exitX=1;exitY=0.5;exitDx=0;exitDy=0;entryX=0;entryY=0.5;entryDx=0;entryDy=0;" edge="1" parent="WIyWlLk6GJQsqaUBKTNV-1">
          <mxGeometry width="50" height="50" relative="1" as="geometry">
            <mxPoint x="2630" y="339.71000000000004" as="sourcePoint" />
            <mxPoint x="2680" y="339.71000000000004" as="targetPoint" />
          </mxGeometry>
        </mxCell>
        <mxCell id="AJ_VUI1XPqa23FB4NZY7-73" value="Antiquité classique - Depuis fin XIXème" style="rounded=1;whiteSpace=wrap;html=1;fontSize=12;glass=0;strokeWidth=1;shadow=0;" vertex="1" parent="WIyWlLk6GJQsqaUBKTNV-1">
          <mxGeometry x="2680" y="430" width="120" height="40" as="geometry" />
        </mxCell>
        <mxCell id="AJ_VUI1XPqa23FB4NZY7-74" style="edgeStyle=orthogonalEdgeStyle;rounded=0;orthogonalLoop=1;jettySize=auto;html=1;exitX=1;exitY=0.5;exitDx=0;exitDy=0;" edge="1" parent="WIyWlLk6GJQsqaUBKTNV-1" source="AJ_VUI1XPqa23FB4NZY7-77" target="AJ_VUI1XPqa23FB4NZY7-83">
          <mxGeometry relative="1" as="geometry" />
        </mxCell>
        <mxCell id="AJ_VUI1XPqa23FB4NZY7-75" style="edgeStyle=orthogonalEdgeStyle;rounded=0;orthogonalLoop=1;jettySize=auto;html=1;exitX=1;exitY=0.5;exitDx=0;exitDy=0;entryX=0;entryY=0.5;entryDx=0;entryDy=0;" edge="1" parent="WIyWlLk6GJQsqaUBKTNV-1" source="AJ_VUI1XPqa23FB4NZY7-77" target="AJ_VUI1XPqa23FB4NZY7-79">
          <mxGeometry relative="1" as="geometry" />
        </mxCell>
        <mxCell id="AJ_VUI1XPqa23FB4NZY7-76" style="edgeStyle=orthogonalEdgeStyle;rounded=0;orthogonalLoop=1;jettySize=auto;html=1;exitX=1;exitY=0.5;exitDx=0;exitDy=0;entryX=0;entryY=0.5;entryDx=0;entryDy=0;" edge="1" parent="WIyWlLk6GJQsqaUBKTNV-1" source="AJ_VUI1XPqa23FB4NZY7-77" target="AJ_VUI1XPqa23FB4NZY7-86">
          <mxGeometry relative="1" as="geometry" />
        </mxCell>
        <mxCell id="AJ_VUI1XPqa23FB4NZY7-99" style="edgeStyle=orthogonalEdgeStyle;rounded=0;orthogonalLoop=1;jettySize=auto;html=1;exitX=1;exitY=0.5;exitDx=0;exitDy=0;entryX=0;entryY=0.5;entryDx=0;entryDy=0;" edge="1" parent="WIyWlLk6GJQsqaUBKTNV-1" source="AJ_VUI1XPqa23FB4NZY7-77" target="AJ_VUI1XPqa23FB4NZY7-94">
          <mxGeometry relative="1" as="geometry" />
        </mxCell>
        <mxCell id="AJ_VUI1XPqa23FB4NZY7-77" value="Littérature grise" style="rounded=1;whiteSpace=wrap;html=1;fontSize=12;glass=0;strokeWidth=1;shadow=0;" vertex="1" parent="WIyWlLk6GJQsqaUBKTNV-1">
          <mxGeometry x="740" y="360" width="120" height="40" as="geometry" />
        </mxCell>
        <mxCell id="AJ_VUI1XPqa23FB4NZY7-78" style="edgeStyle=orthogonalEdgeStyle;rounded=0;orthogonalLoop=1;jettySize=auto;html=1;exitX=0.5;exitY=1;exitDx=0;exitDy=0;" edge="1" parent="WIyWlLk6GJQsqaUBKTNV-1" source="AJ_VUI1XPqa23FB4NZY7-79" target="AJ_VUI1XPqa23FB4NZY7-83">
          <mxGeometry relative="1" as="geometry" />
        </mxCell>
        <mxCell id="AJ_VUI1XPqa23FB4NZY7-79" value="Dumas" style="rhombus;whiteSpace=wrap;html=1;shadow=0;fontFamily=Helvetica;fontSize=12;align=center;strokeWidth=1;spacing=6;spacingTop=-4;" vertex="1" parent="WIyWlLk6GJQsqaUBKTNV-1">
          <mxGeometry x="900" y="170" width="100" height="80" as="geometry" />
        </mxCell>
        <mxCell id="AJ_VUI1XPqa23FB4NZY7-80" value="Mémoires master" style="rounded=1;whiteSpace=wrap;html=1;fontSize=12;glass=0;strokeWidth=1;shadow=0;" vertex="1" parent="WIyWlLk6GJQsqaUBKTNV-1">
          <mxGeometry x="1050" y="190" width="120" height="40" as="geometry" />
        </mxCell>
        <mxCell id="AJ_VUI1XPqa23FB4NZY7-81" value="" style="edgeStyle=orthogonalEdgeStyle;rounded=0;orthogonalLoop=1;jettySize=auto;html=1;" edge="1" parent="WIyWlLk6GJQsqaUBKTNV-1" source="AJ_VUI1XPqa23FB4NZY7-83" target="AJ_VUI1XPqa23FB4NZY7-86">
          <mxGeometry relative="1" as="geometry" />
        </mxCell>
        <mxCell id="AJ_VUI1XPqa23FB4NZY7-82" style="edgeStyle=orthogonalEdgeStyle;rounded=0;orthogonalLoop=1;jettySize=auto;html=1;exitX=0.5;exitY=0;exitDx=0;exitDy=0;entryX=0.5;entryY=1;entryDx=0;entryDy=0;" edge="1" parent="WIyWlLk6GJQsqaUBKTNV-1" source="AJ_VUI1XPqa23FB4NZY7-83" target="AJ_VUI1XPqa23FB4NZY7-79">
          <mxGeometry relative="1" as="geometry" />
        </mxCell>
        <mxCell id="AJ_VUI1XPqa23FB4NZY7-83" value="Hal Theses" style="rhombus;whiteSpace=wrap;html=1;shadow=0;fontFamily=Helvetica;fontSize=12;align=center;strokeWidth=1;spacing=6;spacingTop=-4;" vertex="1" parent="WIyWlLk6GJQsqaUBKTNV-1">
          <mxGeometry x="900" y="290" width="100" height="80" as="geometry" />
        </mxCell>
        <mxCell id="AJ_VUI1XPqa23FB4NZY7-84" value="Thèses" style="rounded=1;whiteSpace=wrap;html=1;fontSize=12;glass=0;strokeWidth=1;shadow=0;" vertex="1" parent="WIyWlLk6GJQsqaUBKTNV-1">
          <mxGeometry x="1050" y="310" width="120" height="40" as="geometry" />
        </mxCell>
        <mxCell id="AJ_VUI1XPqa23FB4NZY7-85" style="edgeStyle=orthogonalEdgeStyle;rounded=0;orthogonalLoop=1;jettySize=auto;html=1;entryX=0.5;entryY=1;entryDx=0;entryDy=0;" edge="1" parent="WIyWlLk6GJQsqaUBKTNV-1" source="AJ_VUI1XPqa23FB4NZY7-86" target="AJ_VUI1XPqa23FB4NZY7-83">
          <mxGeometry relative="1" as="geometry" />
        </mxCell>
        <mxCell id="AJ_VUI1XPqa23FB4NZY7-95" value="" style="edgeStyle=orthogonalEdgeStyle;rounded=0;orthogonalLoop=1;jettySize=auto;html=1;" edge="1" parent="WIyWlLk6GJQsqaUBKTNV-1" source="AJ_VUI1XPqa23FB4NZY7-86" target="AJ_VUI1XPqa23FB4NZY7-94">
          <mxGeometry relative="1" as="geometry" />
        </mxCell>
        <mxCell id="AJ_VUI1XPqa23FB4NZY7-86" value="TRHAA" style="rhombus;whiteSpace=wrap;html=1;shadow=0;fontFamily=Helvetica;fontSize=12;align=center;strokeWidth=1;spacing=6;spacingTop=-4;" vertex="1" parent="WIyWlLk6GJQsqaUBKTNV-1">
          <mxGeometry x="900" y="400" width="100" height="80" as="geometry" />
        </mxCell>
        <mxCell id="AJ_VUI1XPqa23FB4NZY7-87" value="" style="endArrow=none;dashed=1;html=1;rounded=0;exitX=1;exitY=0.5;exitDx=0;exitDy=0;entryX=0;entryY=0.5;entryDx=0;entryDy=0;" edge="1" parent="WIyWlLk6GJQsqaUBKTNV-1" source="AJ_VUI1XPqa23FB4NZY7-79" target="AJ_VUI1XPqa23FB4NZY7-80">
          <mxGeometry width="50" height="50" relative="1" as="geometry">
            <mxPoint x="1030" y="360" as="sourcePoint" />
            <mxPoint x="1080" y="310" as="targetPoint" />
          </mxGeometry>
        </mxCell>
        <mxCell id="AJ_VUI1XPqa23FB4NZY7-88" value="" style="endArrow=none;dashed=1;html=1;rounded=0;exitX=1;exitY=0.5;exitDx=0;exitDy=0;entryX=0;entryY=0.5;entryDx=0;entryDy=0;" edge="1" parent="WIyWlLk6GJQsqaUBKTNV-1">
          <mxGeometry width="50" height="50" relative="1" as="geometry">
            <mxPoint x="1000" y="329.71000000000004" as="sourcePoint" />
            <mxPoint x="1050" y="329.71000000000004" as="targetPoint" />
          </mxGeometry>
        </mxCell>
        <mxCell id="AJ_VUI1XPqa23FB4NZY7-89" value="Signalement mémoires et thèses HAA - France" style="rounded=1;whiteSpace=wrap;html=1;fontSize=12;glass=0;strokeWidth=1;shadow=0;" vertex="1" parent="WIyWlLk6GJQsqaUBKTNV-1">
          <mxGeometry x="1050" y="420" width="120" height="40" as="geometry" />
        </mxCell>
        <mxCell id="AJ_VUI1XPqa23FB4NZY7-90" value="" style="endArrow=none;dashed=1;html=1;rounded=0;exitX=1;exitY=0.5;exitDx=0;exitDy=0;entryX=0;entryY=0.5;entryDx=0;entryDy=0;" edge="1" parent="WIyWlLk6GJQsqaUBKTNV-1" source="AJ_VUI1XPqa23FB4NZY7-1" target="AJ_VUI1XPqa23FB4NZY7-19">
          <mxGeometry width="50" height="50" relative="1" as="geometry">
            <mxPoint x="280" y="339.71" as="sourcePoint" />
            <mxPoint x="330" y="339.71" as="targetPoint" />
            <Array as="points" />
          </mxGeometry>
        </mxCell>
        <mxCell id="AJ_VUI1XPqa23FB4NZY7-92" value="" style="endArrow=none;dashed=1;html=1;rounded=0;exitX=1;exitY=0.5;exitDx=0;exitDy=0;entryX=0;entryY=0.5;entryDx=0;entryDy=0;" edge="1" parent="WIyWlLk6GJQsqaUBKTNV-1" source="AJ_VUI1XPqa23FB4NZY7-32" target="AJ_VUI1XPqa23FB4NZY7-35">
          <mxGeometry width="50" height="50" relative="1" as="geometry">
            <mxPoint x="280" y="529" as="sourcePoint" />
            <mxPoint x="330" y="529" as="targetPoint" />
            <Array as="points" />
          </mxGeometry>
        </mxCell>
        <mxCell id="AJ_VUI1XPqa23FB4NZY7-93" value="" style="endArrow=none;dashed=1;html=1;rounded=0;exitX=1;exitY=0.5;exitDx=0;exitDy=0;entryX=0;entryY=0.5;entryDx=0;entryDy=0;" edge="1" parent="WIyWlLk6GJQsqaUBKTNV-1" source="AJ_VUI1XPqa23FB4NZY7-86" target="AJ_VUI1XPqa23FB4NZY7-89">
          <mxGeometry width="50" height="50" relative="1" as="geometry">
            <mxPoint x="1010" y="339.71000000000004" as="sourcePoint" />
            <mxPoint x="1060" y="339.71000000000004" as="targetPoint" />
            <Array as="points">
              <mxPoint x="1030" y="440" />
            </Array>
          </mxGeometry>
        </mxCell>
        <mxCell id="AJ_VUI1XPqa23FB4NZY7-97" style="edgeStyle=orthogonalEdgeStyle;rounded=0;orthogonalLoop=1;jettySize=auto;html=1;exitX=0.5;exitY=0;exitDx=0;exitDy=0;entryX=0.5;entryY=1;entryDx=0;entryDy=0;" edge="1" parent="WIyWlLk6GJQsqaUBKTNV-1" source="AJ_VUI1XPqa23FB4NZY7-94" target="AJ_VUI1XPqa23FB4NZY7-86">
          <mxGeometry relative="1" as="geometry" />
        </mxCell>
        <mxCell id="AJ_VUI1XPqa23FB4NZY7-94" value="TARTARC" style="rhombus;whiteSpace=wrap;html=1;shadow=0;fontFamily=Helvetica;fontSize=12;align=center;strokeWidth=1;spacing=6;spacingTop=-4;" vertex="1" parent="WIyWlLk6GJQsqaUBKTNV-1">
          <mxGeometry x="900" y="512" width="100" height="80" as="geometry" />
        </mxCell>
        <mxCell id="AJ_VUI1XPqa23FB4NZY7-100" value="Signalement mémoires et thèses HAA Paris 1 - UFR 03" style="rounded=1;whiteSpace=wrap;html=1;fontSize=12;glass=0;strokeWidth=1;shadow=0;" vertex="1" parent="WIyWlLk6GJQsqaUBKTNV-1">
          <mxGeometry x="1050" y="532" width="120" height="40" as="geometry" />
        </mxCell>
        <mxCell id="AJ_VUI1XPqa23FB4NZY7-101" value="" style="endArrow=none;dashed=1;html=1;rounded=0;exitX=1;exitY=0.5;exitDx=0;exitDy=0;entryX=0;entryY=0.5;entryDx=0;entryDy=0;" edge="1" parent="WIyWlLk6GJQsqaUBKTNV-1" target="AJ_VUI1XPqa23FB4NZY7-100">
          <mxGeometry width="50" height="50" relative="1" as="geometry">
            <mxPoint x="1000" y="552" as="sourcePoint" />
            <mxPoint x="1060" y="451.71000000000004" as="targetPoint" />
            <Array as="points">
              <mxPoint x="1030" y="552" />
            </Array>
          </mxGeometry>
        </mxCell>
        <mxCell id="AJ_VUI1XPqa23FB4NZY7-136" style="edgeStyle=orthogonalEdgeStyle;rounded=0;orthogonalLoop=1;jettySize=auto;html=1;exitX=1;exitY=0.5;exitDx=0;exitDy=0;" edge="1" parent="WIyWlLk6GJQsqaUBKTNV-1" source="AJ_VUI1XPqa23FB4NZY7-139" target="AJ_VUI1XPqa23FB4NZY7-145">
          <mxGeometry relative="1" as="geometry" />
        </mxCell>
        <mxCell id="AJ_VUI1XPqa23FB4NZY7-137" style="edgeStyle=orthogonalEdgeStyle;rounded=0;orthogonalLoop=1;jettySize=auto;html=1;exitX=1;exitY=0.5;exitDx=0;exitDy=0;entryX=0;entryY=0.5;entryDx=0;entryDy=0;" edge="1" parent="WIyWlLk6GJQsqaUBKTNV-1" source="AJ_VUI1XPqa23FB4NZY7-139" target="AJ_VUI1XPqa23FB4NZY7-141">
          <mxGeometry relative="1" as="geometry" />
        </mxCell>
        <mxCell id="AJ_VUI1XPqa23FB4NZY7-138" style="edgeStyle=orthogonalEdgeStyle;rounded=0;orthogonalLoop=1;jettySize=auto;html=1;exitX=1;exitY=0.5;exitDx=0;exitDy=0;entryX=0;entryY=0.5;entryDx=0;entryDy=0;" edge="1" parent="WIyWlLk6GJQsqaUBKTNV-1" source="AJ_VUI1XPqa23FB4NZY7-139" target="AJ_VUI1XPqa23FB4NZY7-148">
          <mxGeometry relative="1" as="geometry" />
        </mxCell>
        <mxCell id="AJ_VUI1XPqa23FB4NZY7-160" style="edgeStyle=orthogonalEdgeStyle;rounded=0;orthogonalLoop=1;jettySize=auto;html=1;exitX=1;exitY=0.5;exitDx=0;exitDy=0;entryX=0;entryY=0.5;entryDx=0;entryDy=0;" edge="1" parent="WIyWlLk6GJQsqaUBKTNV-1" source="AJ_VUI1XPqa23FB4NZY7-139" target="AJ_VUI1XPqa23FB4NZY7-157">
          <mxGeometry relative="1" as="geometry" />
        </mxCell>
        <mxCell id="AJ_VUI1XPqa23FB4NZY7-139" value="Bouquets d&#39;ouvrages et revues" style="rounded=1;whiteSpace=wrap;html=1;fontSize=12;glass=0;strokeWidth=1;shadow=0;" vertex="1" parent="WIyWlLk6GJQsqaUBKTNV-1">
          <mxGeometry x="1130" y="789" width="120" height="40" as="geometry" />
        </mxCell>
        <mxCell id="AJ_VUI1XPqa23FB4NZY7-140" style="edgeStyle=orthogonalEdgeStyle;rounded=0;orthogonalLoop=1;jettySize=auto;html=1;exitX=0.5;exitY=1;exitDx=0;exitDy=0;" edge="1" parent="WIyWlLk6GJQsqaUBKTNV-1" source="AJ_VUI1XPqa23FB4NZY7-141" target="AJ_VUI1XPqa23FB4NZY7-145">
          <mxGeometry relative="1" as="geometry" />
        </mxCell>
        <mxCell id="AJ_VUI1XPqa23FB4NZY7-141" value="CAIRN" style="rhombus;whiteSpace=wrap;html=1;shadow=0;fontFamily=Helvetica;fontSize=12;align=center;strokeWidth=1;spacing=6;spacingTop=-4;" vertex="1" parent="WIyWlLk6GJQsqaUBKTNV-1">
          <mxGeometry x="1290" y="599" width="100" height="80" as="geometry" />
        </mxCell>
        <mxCell id="AJ_VUI1XPqa23FB4NZY7-143" value="" style="edgeStyle=orthogonalEdgeStyle;rounded=0;orthogonalLoop=1;jettySize=auto;html=1;" edge="1" parent="WIyWlLk6GJQsqaUBKTNV-1" source="AJ_VUI1XPqa23FB4NZY7-145" target="AJ_VUI1XPqa23FB4NZY7-148">
          <mxGeometry relative="1" as="geometry" />
        </mxCell>
        <mxCell id="AJ_VUI1XPqa23FB4NZY7-144" style="edgeStyle=orthogonalEdgeStyle;rounded=0;orthogonalLoop=1;jettySize=auto;html=1;exitX=0.5;exitY=0;exitDx=0;exitDy=0;entryX=0.5;entryY=1;entryDx=0;entryDy=0;" edge="1" parent="WIyWlLk6GJQsqaUBKTNV-1" source="AJ_VUI1XPqa23FB4NZY7-145" target="AJ_VUI1XPqa23FB4NZY7-141">
          <mxGeometry relative="1" as="geometry" />
        </mxCell>
        <mxCell id="AJ_VUI1XPqa23FB4NZY7-145" value="Persee" style="rhombus;whiteSpace=wrap;html=1;shadow=0;fontFamily=Helvetica;fontSize=12;align=center;strokeWidth=1;spacing=6;spacingTop=-4;" vertex="1" parent="WIyWlLk6GJQsqaUBKTNV-1">
          <mxGeometry x="1290" y="719" width="100" height="80" as="geometry" />
        </mxCell>
        <mxCell id="AJ_VUI1XPqa23FB4NZY7-147" style="edgeStyle=orthogonalEdgeStyle;rounded=0;orthogonalLoop=1;jettySize=auto;html=1;entryX=0.5;entryY=1;entryDx=0;entryDy=0;" edge="1" parent="WIyWlLk6GJQsqaUBKTNV-1" source="AJ_VUI1XPqa23FB4NZY7-148" target="AJ_VUI1XPqa23FB4NZY7-145">
          <mxGeometry relative="1" as="geometry" />
        </mxCell>
        <mxCell id="AJ_VUI1XPqa23FB4NZY7-158" value="" style="edgeStyle=orthogonalEdgeStyle;rounded=0;orthogonalLoop=1;jettySize=auto;html=1;" edge="1" parent="WIyWlLk6GJQsqaUBKTNV-1" source="AJ_VUI1XPqa23FB4NZY7-148" target="AJ_VUI1XPqa23FB4NZY7-157">
          <mxGeometry relative="1" as="geometry" />
        </mxCell>
        <mxCell id="AJ_VUI1XPqa23FB4NZY7-148" value="OpenEdition" style="rhombus;whiteSpace=wrap;html=1;shadow=0;fontFamily=Helvetica;fontSize=12;align=center;strokeWidth=1;spacing=6;spacingTop=-4;" vertex="1" parent="WIyWlLk6GJQsqaUBKTNV-1">
          <mxGeometry x="1290" y="829" width="100" height="80" as="geometry" />
        </mxCell>
        <mxCell id="AJ_VUI1XPqa23FB4NZY7-149" value="" style="endArrow=none;dashed=1;html=1;rounded=0;exitX=1;exitY=0.5;exitDx=0;exitDy=0;entryX=0;entryY=0.5;entryDx=0;entryDy=0;" edge="1" parent="WIyWlLk6GJQsqaUBKTNV-1" source="AJ_VUI1XPqa23FB4NZY7-141">
          <mxGeometry width="50" height="50" relative="1" as="geometry">
            <mxPoint x="1420" y="789" as="sourcePoint" />
            <mxPoint x="1440" y="639" as="targetPoint" />
          </mxGeometry>
        </mxCell>
        <mxCell id="AJ_VUI1XPqa23FB4NZY7-150" value="" style="endArrow=none;dashed=1;html=1;rounded=0;exitX=1;exitY=0.5;exitDx=0;exitDy=0;entryX=0;entryY=0.5;entryDx=0;entryDy=0;" edge="1" parent="WIyWlLk6GJQsqaUBKTNV-1">
          <mxGeometry width="50" height="50" relative="1" as="geometry">
            <mxPoint x="1390" y="758.71" as="sourcePoint" />
            <mxPoint x="1440" y="758.71" as="targetPoint" />
          </mxGeometry>
        </mxCell>
        <mxCell id="AJ_VUI1XPqa23FB4NZY7-152" value="" style="endArrow=none;dashed=1;html=1;rounded=0;exitX=1;exitY=0.5;exitDx=0;exitDy=0;entryX=0;entryY=0.5;entryDx=0;entryDy=0;" edge="1" parent="WIyWlLk6GJQsqaUBKTNV-1" source="AJ_VUI1XPqa23FB4NZY7-148">
          <mxGeometry width="50" height="50" relative="1" as="geometry">
            <mxPoint x="1090" y="549" as="sourcePoint" />
            <mxPoint x="1440" y="869" as="targetPoint" />
            <Array as="points" />
          </mxGeometry>
        </mxCell>
        <mxCell id="AJ_VUI1XPqa23FB4NZY7-156" value="" style="edgeStyle=orthogonalEdgeStyle;rounded=0;orthogonalLoop=1;jettySize=auto;html=1;" edge="1" parent="WIyWlLk6GJQsqaUBKTNV-1" source="AJ_VUI1XPqa23FB4NZY7-153" target="AJ_VUI1XPqa23FB4NZY7-155">
          <mxGeometry relative="1" as="geometry" />
        </mxCell>
        <mxCell id="AJ_VUI1XPqa23FB4NZY7-153" value="EAA" style="rhombus;whiteSpace=wrap;html=1;shadow=0;fontFamily=Helvetica;fontSize=12;align=center;strokeWidth=1;spacing=6;spacingTop=-4;" vertex="1" parent="WIyWlLk6GJQsqaUBKTNV-1">
          <mxGeometry x="1990" y="822" width="100" height="80" as="geometry" />
        </mxCell>
        <mxCell id="AJ_VUI1XPqa23FB4NZY7-155" value="Oxford Classical Dictionnary" style="rhombus;whiteSpace=wrap;html=1;shadow=0;fontFamily=Helvetica;fontSize=12;align=center;strokeWidth=1;spacing=6;spacingTop=-4;" vertex="1" parent="WIyWlLk6GJQsqaUBKTNV-1">
          <mxGeometry x="1990" y="982" width="100" height="80" as="geometry" />
        </mxCell>
        <mxCell id="AJ_VUI1XPqa23FB4NZY7-159" style="edgeStyle=orthogonalEdgeStyle;rounded=0;orthogonalLoop=1;jettySize=auto;html=1;entryX=0.5;entryY=1;entryDx=0;entryDy=0;" edge="1" parent="WIyWlLk6GJQsqaUBKTNV-1" source="AJ_VUI1XPqa23FB4NZY7-157" target="AJ_VUI1XPqa23FB4NZY7-148">
          <mxGeometry relative="1" as="geometry" />
        </mxCell>
        <mxCell id="AJ_VUI1XPqa23FB4NZY7-157" value="JStor" style="rhombus;whiteSpace=wrap;html=1;shadow=0;fontFamily=Helvetica;fontSize=12;align=center;strokeWidth=1;spacing=6;spacingTop=-4;" vertex="1" parent="WIyWlLk6GJQsqaUBKTNV-1">
          <mxGeometry x="1290" y="940" width="100" height="80" as="geometry" />
        </mxCell>
        <mxCell id="AJ_VUI1XPqa23FB4NZY7-162" value="" style="endArrow=none;dashed=1;html=1;rounded=0;exitX=1;exitY=0.5;exitDx=0;exitDy=0;entryX=0;entryY=0.5;entryDx=0;entryDy=0;" edge="1" parent="WIyWlLk6GJQsqaUBKTNV-1">
          <mxGeometry width="50" height="50" relative="1" as="geometry">
            <mxPoint x="1390" y="980" as="sourcePoint" />
            <mxPoint x="1440" y="980" as="targetPoint" />
            <Array as="points" />
          </mxGeometry>
        </mxCell>
        <mxCell id="AJ_VUI1XPqa23FB4NZY7-164" value="" style="endArrow=none;dashed=1;html=1;rounded=0;exitX=1;exitY=0.5;exitDx=0;exitDy=0;entryX=0;entryY=0.5;entryDx=0;entryDy=0;" edge="1" parent="WIyWlLk6GJQsqaUBKTNV-1">
          <mxGeometry width="50" height="50" relative="1" as="geometry">
            <mxPoint x="440" y="210" as="sourcePoint" />
            <mxPoint x="490" y="210" as="targetPoint" />
            <Array as="points" />
          </mxGeometry>
        </mxCell>
        <mxCell id="AJ_VUI1XPqa23FB4NZY7-168" value="Libre" style="ellipse;whiteSpace=wrap;html=1;" vertex="1" parent="WIyWlLk6GJQsqaUBKTNV-1">
          <mxGeometry x="490" y="305" width="120" height="50" as="geometry" />
        </mxCell>
        <mxCell id="AJ_VUI1XPqa23FB4NZY7-169" value="via portail BIS" style="ellipse;whiteSpace=wrap;html=1;" vertex="1" parent="WIyWlLk6GJQsqaUBKTNV-1">
          <mxGeometry x="490" y="415" width="120" height="50" as="geometry" />
        </mxCell>
        <mxCell id="AJ_VUI1XPqa23FB4NZY7-170" value="via ENT" style="ellipse;whiteSpace=wrap;html=1;" vertex="1" parent="WIyWlLk6GJQsqaUBKTNV-1">
          <mxGeometry x="490" y="185" width="120" height="50" as="geometry" />
        </mxCell>
        <mxCell id="AJ_VUI1XPqa23FB4NZY7-171" value="" style="endArrow=none;dashed=1;html=1;rounded=0;exitX=1;exitY=0.5;exitDx=0;exitDy=0;entryX=0;entryY=0.5;entryDx=0;entryDy=0;" edge="1" parent="WIyWlLk6GJQsqaUBKTNV-1" source="WIyWlLk6GJQsqaUBKTNV-12" target="AJ_VUI1XPqa23FB4NZY7-168">
          <mxGeometry width="50" height="50" relative="1" as="geometry">
            <mxPoint x="450" y="220" as="sourcePoint" />
            <mxPoint x="500" y="220" as="targetPoint" />
            <Array as="points" />
          </mxGeometry>
        </mxCell>
        <mxCell id="AJ_VUI1XPqa23FB4NZY7-172" value="" style="endArrow=none;dashed=1;html=1;rounded=0;entryX=0;entryY=0.5;entryDx=0;entryDy=0;exitX=1;exitY=0.5;exitDx=0;exitDy=0;" edge="1" parent="WIyWlLk6GJQsqaUBKTNV-1" source="AJ_VUI1XPqa23FB4NZY7-19" target="AJ_VUI1XPqa23FB4NZY7-169">
          <mxGeometry width="50" height="50" relative="1" as="geometry">
            <mxPoint x="450" y="340" as="sourcePoint" />
            <mxPoint x="500" y="340" as="targetPoint" />
            <Array as="points" />
          </mxGeometry>
        </mxCell>
        <mxCell id="AJ_VUI1XPqa23FB4NZY7-173" value="Libre et via ENT" style="ellipse;whiteSpace=wrap;html=1;" vertex="1" parent="WIyWlLk6GJQsqaUBKTNV-1">
          <mxGeometry x="1440" y="614" width="120" height="50" as="geometry" />
        </mxCell>
        <mxCell id="AJ_VUI1XPqa23FB4NZY7-174" value="Libre" style="ellipse;whiteSpace=wrap;html=1;" vertex="1" parent="WIyWlLk6GJQsqaUBKTNV-1">
          <mxGeometry x="1440" y="734" width="120" height="50" as="geometry" />
        </mxCell>
        <mxCell id="AJ_VUI1XPqa23FB4NZY7-175" value="Libre et via ENT" style="ellipse;whiteSpace=wrap;html=1;" vertex="1" parent="WIyWlLk6GJQsqaUBKTNV-1">
          <mxGeometry x="1440" y="844" width="120" height="50" as="geometry" />
        </mxCell>
        <mxCell id="AJ_VUI1XPqa23FB4NZY7-176" value="via ENT" style="ellipse;whiteSpace=wrap;html=1;" vertex="1" parent="WIyWlLk6GJQsqaUBKTNV-1">
          <mxGeometry x="1440" y="955" width="120" height="50" as="geometry" />
        </mxCell>
      </root>
    </mxGraphModel>
  </diagram>
</mxfile>
